HIERARCHY
ROOT Hips
{
	OFFSET -0.001795 -0.223333 0.028219
	CHANNELS 6 Xposition Yposition Zposition Zrotation Yrotation Xrotation
	JOINT LeftUpLeg
	{
		OFFSET 0.069520 -0.091406 -0.006815
		CHANNELS 3 Zrotation Yrotation Xrotation
		JOINT LeftLeg
		{
			OFFSET 0.034277 -0.375199 -0.004496
			CHANNELS 3 Zrotation Yrotation Xrotation
			JOINT LeftFoot
			{
				OFFSET -0.013596 -0.397961 -0.043693
				CHANNELS 3 Zrotation Yrotation Xrotation
				JOINT LeftToe
				{
					OFFSET 0.026358 -0.055791 0.119288
					CHANNELS 3 Zrotation Yrotation Xrotation
					End Site
					{
						OFFSET 0.000000 0.000000 0.000000
					}
				}
			}
		}
	}
	JOINT RightUpLeg
	{
		OFFSET -0.067670 -0.090522 -0.004320
		CHANNELS 3 Zrotation Yrotation Xrotation
		JOINT RightLeg
		{
			OFFSET -0.038290 -0.382569 -0.008850
			CHANNELS 3 Zrotation Yrotation Xrotation
			JOINT RightFoot
			{
				OFFSET 0.015774 -0.398415 -0.042312
				CHANNELS 3 Zrotation Yrotation Xrotation
				JOINT RightToe
				{
					OFFSET -0.025372 -0.048144 0.123348
					CHANNELS 3 Zrotation Yrotation Xrotation
					End Site
					{
						OFFSET 0.000000 0.000000 0.000000
					}
				}
			}
		}
	}
	JOINT Spine
	{
		OFFSET -0.002533 0.108963 -0.026696
		CHANNELS 3 Zrotation Yrotation Xrotation
		JOINT Spine1
		{
			OFFSET 0.005487 0.135180 0.001092
			CHANNELS 3 Zrotation Yrotation Xrotation
			JOINT Spine2
			{
				OFFSET 0.001457 0.052922 0.025425
				CHANNELS 3 Zrotation Yrotation Xrotation
				JOINT Neck
				{
					OFFSET -0.002778 0.213870 -0.042857
					CHANNELS 3 Zrotation Yrotation Xrotation
					JOINT Head
					{
						OFFSET 0.005152 0.064970 0.051349
						CHANNELS 3 Zrotation Yrotation Xrotation
						End Site
						{
							OFFSET 0.000000 0.000000 0.000000
						}
					}
				}
				JOINT LeftShoulder
				{
					OFFSET 0.078845 0.121749 -0.034090
					CHANNELS 3 Zrotation Yrotation Xrotation
					JOINT LeftArm
					{
						OFFSET 0.090977 0.030469 -0.008868
						CHANNELS 3 Zrotation Yrotation Xrotation
						JOINT LeftForeArm
						{
							OFFSET 0.259612 -0.012772 -0.027456
							CHANNELS 3 Zrotation Yrotation Xrotation
							JOINT LeftHand
							{
								OFFSET 0.249234 0.008986 -0.001171
								CHANNELS 3 Zrotation Yrotation Xrotation
								End Site
								{
									OFFSET 0.000000 0.000000 0.000000
								}
							}
						}
					}
				}
				JOINT RightShoulder
				{
					OFFSET -0.081759 0.118833 -0.038615
					CHANNELS 3 Zrotation Yrotation Xrotation
					JOINT RightArm
					{
						OFFSET -0.096012 0.032551 -0.009143
						CHANNELS 3 Zrotation Yrotation Xrotation
						JOINT RightForeArm
						{
							OFFSET -0.253742 -0.013329 -0.021401
							CHANNELS 3 Zrotation Yrotation Xrotation
							JOINT RightHand
							{
								OFFSET -0.255298 0.007772 -0.005559
								CHANNELS 3 Zrotation Yrotation Xrotation
								End Site
								{
									OFFSET 0.000000 0.000000 0.000000
								}
							}
						}
					}
				}
			}
		}
	}
}
MOTION
Frames: 10
Frame Time: 0.050000
0.000000 0.478662 0.000000 -1.906526 23.757525 44.972731 23.801036 -3.173947 -18.002600 -21.865610 4.124350 49.518235 10.957008 18.879509 -41.714902 0.000000 0.000000 0.000000 -10.391916 -13.029138 -69.932111 20.603966 -38.772992 106.520643 -8.485020 -16.002126 -19.868664 0.000000 0.000000 0.000000 -7.233946 -8.785857 65.932455 13.192945 2.164865 -58.754942 10.379870 11.350757 21.649811 -5.409171 5.553220 -32.858373 0.000000 0.000000 0.000000 -27.847139 -12.159392 -2.526435 -26.141764 -16.246456 0.750649 49.460841 -64.428057 -31.345635 0.000000 0.000000 0.000000 30.681012 9.861619 14.345752 30.495197 11.651975 -3.062162 -20.981488 42.898881 -4.224662 0.000000 0.000000 0.000000
0.021228 0.430786 0.053319 -1.286071 24.434213 49.605404 27.927367 -4.183206 -14.592444 -22.638330 4.587523 47.519424 10.967888 19.374159 -34.768483 0.000000 0.000000 0.000000 -12.521489 -15.273191 -69.414955 28.155699 -44.623065 98.216926 -9.312606 -20.588445 -12.175203 0.000000 0.000000 0.000000 -5.613626 -9.841460 64.301917 20.749942 4.766785 -69.774072 8.619689 15.528838 32.413903 -0.947228 4.712947 -28.005943 0.000000 0.000000 0.000000 -34.982794 -8.832045 -9.078436 -20.394781 -7.066044 -0.428594 46.059514 -71.990728 -33.442897 0.000000 0.000000 0.000000 41.303875 6.355375 18.108413 20.988327 5.621822 -4.164563 -30.376209 48.124366 -10.682468 0.000000 0.000000 0.000000
0.046025 0.363289 0.104396 -0.958791 23.512207 52.122799 26.679321 -6.074684 0.871872 -12.304715 0.767705 35.472659 8.644135 7.228061 -21.636880 0.000000 0.000000 0.000000 -19.887435 -16.239883 -58.673112 28.991620 -48.435145 97.960457 -7.027313 -11.890477 -11.251101 0.000000 0.000000 0.000000 -2.722936 -11.515573 63.560738 20.654958 6.254104 -75.383231 8.881181 16.645562 35.044891 -7.362405 6.356738 -8.520948 0.000000 0.000000 0.000000 -35.032613 -7.844479 -9.593736 -19.383137 0.783776 -1.143093 48.972012 -82.243599 -43.625019 0.000000 0.000000 0.000000 44.616725 0.493019 11.890179 18.753321 -1.140677 -3.788231 -42.895277 64.084161 -25.125299 0.000000 0.000000 0.000000
0.070851 0.294713 0.141261 1.562458 23.699667 59.061768 21.388414 -5.319728 4.608916 -0.590004 -2.481853 27.898021 0.097139 -5.791007 -6.672166 0.000000 0.000000 0.000000 -29.115191 -18.463237 -48.462984 34.747418 -52.588549 89.462265 -1.848915 0.401186 -5.913394 0.000000 0.000000 0.000000 2.565897 -16.512946 63.368302 13.039959 6.131675 -91.024512 12.582512 8.580381 45.306231 -11.687282 9.527581 -7.483713 0.000000 0.000000 0.000000 -38.917220 -4.216305 -9.615484 -15.502562 5.155330 -1.442096 62.774294 -87.956330 -62.214921 0.000000 0.000000 0.000000 36.685006 3.619433 8.727019 24.107249 -8.137165 -5.042362 -77.879595 74.623681 -60.793780 0.000000 0.000000 0.000000
0.095243 0.223864 0.164761 -2.328488 20.500817 61.654288 17.513431 -4.658716 10.980747 0.871591 -1.917848 22.776014 -2.638274 -6.406159 -0.763633 0.000000 0.000000 0.000000 -42.113345 -19.640354 -40.947977 52.528901 -59.931069 76.325455 7.998739 1.119468 23.888908 0.000000 0.000000 0.000000 7.753386 -17.854115 59.945572 10.782047 5.472411 -92.675672 16.298711 12.944414 49.069649 -6.705117 5.552193 -5.821712 0.000000 0.000000 0.000000 -35.370605 -3.306499 -11.739920 -17.607546 11.676184 -2.049275 -105.948498 -89.511616 102.438342 0.000000 0.000000 0.000000 37.349228 -0.931328 6.843149 19.584292 -6.779199 -3.945388 -106.306345 69.454829 -83.178424 0.000000 0.000000 0.000000
0.117143 0.166353 0.177893 -5.180226 20.040874 64.386819 16.321814 -4.412035 12.325871 2.549274 -1.994146 20.382257 -5.437907 -12.701661 -1.606031 0.000000 0.000000 0.000000 -54.609158 -16.085143 -24.891656 76.174645 -62.684081 52.208745 16.202437 13.104163 24.801473 0.000000 0.000000 0.000000 13.269338 -21.161705 57.318121 8.237235 4.558563 -94.344478 21.707010 16.073915 51.764986 -5.099493 4.519915 -6.834231 0.000000 0.000000 0.000000 -30.855869 -1.290798 -13.401127 -19.623185 17.893840 -3.082846 -94.595606 -83.255918 83.330542 0.000000 0.000000 0.000000 30.508429 -1.632294 7.130766 23.853882 -7.234879 -5.069907 -129.509198 61.333251 -95.331324 0.000000 0.000000 0.000000
0.136910 0.122091 0.184071 -6.834608 16.837240 65.862057 12.080406 -2.977400 15.608349 2.541733 -1.474459 16.862674 -5.133979 -10.676770 -0.173464 0.000000 0.000000 0.000000 -68.238124 -12.323713 -15.411896 93.444673 -62.036100 37.172030 20.447740 10.427664 39.383630 0.000000 0.000000 0.000000 15.261047 -20.321346 55.377693 5.361742 3.364225 -90.562238 24.624483 17.722722 48.849353 -2.587755 3.091512 -8.830895 0.000000 0.000000 0.000000 -28.715294 -2.183090 -12.950000 -23.584086 23.313728 -4.516917 -115.577962 -80.708528 101.395741 0.000000 0.000000 0.000000 21.777860 -2.505107 4.975821 26.323048 -7.684249 -4.999392 -140.960402 52.891356 -94.226204 0.000000 0.000000 0.000000
0.153528 0.091358 0.187227 -6.078019 15.289792 67.624281 10.348888 -2.306463 15.721671 2.531653 -1.231137 14.698713 -4.622633 -11.748092 -2.908556 0.000000 0.000000 0.000000 -80.414841 -11.462796 -9.708727 100.483618 -62.676775 33.675339 20.192281 6.776666 46.456503 0.000000 0.000000 0.000000 19.190151 -21.365431 51.744863 1.909233 1.854148 -87.075287 26.664676 19.302161 46.235716 -2.246967 2.750147 -8.208045 0.000000 0.000000 0.000000 -29.556457 -2.236821 -14.313962 -23.395335 25.979729 -4.438256 -116.733161 -79.583566 101.789529 0.000000 0.000000 0.000000 16.263472 -5.091001 2.321762 24.546316 -8.022795 -4.182308 -146.729754 49.598535 -94.729086 0.000000 0.000000 0.000000
0.167214 0.070106 0.191373 -3.877880 12.494779 69.026644 5.951352 -0.732893 15.907114 3.250630 -1.210286 13.364754 -4.545679 -14.874580 -6.911233 0.000000 0.000000 0.000000 -91.932026 -5.967655 -2.085509 110.886511 -60.771586 25.224159 20.654357 5.948274 50.694593 0.000000 0.000000 0.000000 22.235500 -21.622014 49.047660 -2.914974 0.235841 -86.379784 26.122945 17.584042 42.927706 -2.784272 2.931296 -7.101889 0.000000 0.000000 0.000000 -29.729579 -1.559439 -13.434411 -25.820490 27.904744 -5.505862 -127.940593 -77.834491 112.476179 0.000000 0.000000 0.000000 13.984360 -5.389085 1.098002 20.402281 -8.918939 -3.188052 -152.855040 48.129059 -103.954459 0.000000 0.000000 0.000000
0.177137 0.053283 0.198555 -1.757879 11.803313 70.685340 5.587031 -0.658949 15.651566 2.901578 -1.015615 12.050074 -4.238665 -18.046547 -11.053923 0.000000 0.000000 0.000000 -95.944438 -2.187632 2.704235 115.259993 -58.388968 20.522508 16.818780 3.304953 47.737380 0.000000 0.000000 0.000000 24.545352 -22.172568 46.053368 -5.324505 -0.735830 -86.514465 28.175509 16.926007 41.355576 -4.102259 3.112965 -3.542026 0.000000 0.000000 0.000000 -31.544490 -3.242619 -12.835665 -25.423105 29.951952 -5.425262 -128.035852 -77.729732 112.702364 0.000000 0.000000 0.000000 10.883216 -7.455626 -0.836267 18.026712 -8.834653 -2.512777 -158.708143 48.578047 -114.171685 0.000000 0.000000 0.000000
